<svg xmlns="http://www.w3.org/2000/svg" viewBox="0 0 497.08423 381.2579">
  <path fill="#dadada" d="M343.75174 3.74868c16.70895 0 44.82889 1.01884 84.56359 2.85275l40.346 2.44521c5.50173.40754 9.78085.6113 13.04113 1.01884 1.42637 0 2.64898.20377 3.87159.40754h1.63014c.40753 0 .81507.20376 1.63014.40753.40753 0 .81507.20377 1.01884.40754 1.42637 1.01884 2.64898 2.03767 3.46405 3.46405.81507 1.2226 1.42637 2.85275 1.42637 4.48289 0 .6113 0 1.2226-.20377 1.63014-.20376.40753-.20376 1.01884-.20376 1.63014-.40754 1.01884-.81507 2.03768-1.63015 3.46405l-4.89042 10.39215-16.30141 31.38023c-19.35793 37.08571-29.95385 57.87002-32.1953 62.9642-1.01884 2.24145-2.85275 3.8716-5.09419 4.68667-2.44521.81507-4.68666.81507-7.13187 0-2.44521-.81507-4.07535-2.24145-4.89042-4.4829-.81507-2.03767-1.01884-4.07535-.20377-6.11302 4.07535-8.55825 14.87504-29.95385 32.8066-64.3906l9.78084-18.74662c-43.19874 16.09765-86.19372 35.45558-128.37363 57.87002-42.38368 22.61822-83.34099 47.68164-123.07568 75.39405-39.7347 27.7124-76.00535 58.48132-109.42325 92.30676-33.21413 33.82543-60.31523 68.46594-81.09954 103.92151-1.01883 2.03768-2.85274 3.26029-5.50172 3.87159-2.44522.6113-4.89043.40753-7.13187-.40754-2.24145-1.01883-3.66782-2.64898-4.27912-4.89042-.81507-2.24145-.6113-4.48289.6113-6.3168 21.3956-36.67818 49.31178-72.5413 83.74852-107.38557 34.43673-34.84427 71.92999-66.63203 112.8873-95.1595 40.9573-28.52748 83.1372-54.2022 126.53972-77.02419 43.40252-22.82198 87.21257-42.58744 131.22639-58.88886-9.78085-.6113-20.98807-1.2226-33.21413-2.03767-39.32717-2.03768-67.03957-2.85275-83.54475-2.85275-2.64898 0-4.68666-.81507-6.52057-2.44521-1.8339-1.63015-2.64898-3.66782-2.64898-5.90927 0-2.24144.81507-4.27912 2.64898-5.90926 1.42638-1.2226 3.66782-2.03768 6.3168-2.03768z"/>
</svg>
