<?xml version="1.0" encoding="utf-8"?>
<svg id="master-artboard" viewBox="0 0 170 170" version="1.1" xmlns="http://www.w3.org/2000/svg" x="0px" y="0px" style="enable-background:new 0 0 1400 980;">
<circle id="ee-background" cx="85" cy="85" r="85" style="fill: rgb(238, 238, 238); fill-opacity: 1; pointer-events: none;"/>
<g transform="matrix(0.5208958387374878, 0, 0, 0.5208958387374878, -255.3580780029297, 1.1565513610839986)"><g id="g-3" transform="matrix(1, 0, 0, 1, 0, 0)">
	<g id="g-4">
		<path class="st0" d="M652,46c27.6,0,50,22.4,50,50s-22.4,50-50,50s-50-22.4-50-50S624.4,46,652,46z" style="fill: rgb(255, 255, 255);"/>
	</g>
</g></g><path d="M 93.0730209350586 109.13593292236328 L 91.68244171142578 107.97711944580078" style="fill: rgb(51, 51, 51); fill-opacity: 1; stroke: rgb(0, 0, 0); stroke-opacity: 1; stroke-width: 0; paint-order: fill;" transform="matrix(1, 0, 0, 1, -16.686956253624146, -10.197584377214746)"/><path style="fill: rgb(51, 51, 51); fill-opacity: 1; stroke: rgb(0, 0, 0); stroke-opacity: 1; stroke-width: 0; paint-order: fill;"/><g transform="matrix(0.5440723488501499, 0, 0, 0.5440723488501499, -269.7351731192278, 67.5335417658585)"><g id="g-9" transform="matrix(1, 0, 0, 1, 0, 0)">
	<g id="g-10">
		<path class="st0" d="M 652.4259643554688 44.72206115722656 C 711.5484008789062 44.72206115722656 744.3489990234375 81.07764434814453 744.597900390625 95.14804077148438 C 744.597900390625 95.14804077148438 719.6420288085938 147.27793884277344 652 146 C 584.3579711914062 144.72206115722656 558.5501708984375 93.01815032958984 558.5501708984375 93.01815032958984 C 558.13720703125 82.01317596435547 593.3035278320312 44.72206115722656 652.4259643554688 44.72206115722656 Z" style="fill: rgb(255, 255, 255);"/>
	</g>
<path d="M 726.9010620117188 130.99009704589844" style="fill: rgb(255, 255, 255); fill-opacity: 1; stroke: rgb(0, 0, 0); stroke-opacity: 1; stroke-width: 0; paint-order: fill;"/></g></g><path d="M 135.71746826171875 138.8016357421875" style="fill: rgb(51, 51, 51); fill-opacity: 1; stroke: rgb(0, 0, 0); stroke-opacity: 1; stroke-width: 0; paint-order: fill;"/><path d="M 33.509857177734375 137.8745880126953" style="fill: rgb(51, 51, 51); fill-opacity: 1; stroke: rgb(0, 0, 0); stroke-opacity: 1; stroke-width: 0; paint-order: fill;"/>
</svg>
