<svg xmlns="http://www.w3.org/2000/svg" viewBox="0 0 953.16095 980">
  <path fill="#fff" d="M476.37015 8.25565c259.64858 0 470.37787 210.72927 470.37787 470.37785S736.01873 949.01139 476.37015 949.01139 5.9923 738.2821 5.9923 478.63349c0-259.6486 210.72928-470.37784 470.37786-470.37784z" class="st0"/>
  <path fill="#f0f1f2" d="M787.983 348.0589h12.29026v12.29206c0 7.46826 6.05319 13.51966 13.51964 13.51966 7.46645 0 13.51966-6.0514 13.51966-13.51966V348.0589h12.29026c7.46645 0 13.51964-6.0514 13.51964-13.51964 0-7.46824-6.0532-13.51964-13.51964-13.51964h-12.29026v-12.29028c0-7.46824-6.05321-13.51964-13.51966-13.51964s-13.51964 6.0514-13.51964 13.51964v12.29028H787.983c-7.46647 0-13.51966 6.0514-13.51966 13.51964 0 7.46824 6.05319 13.51964 13.51966 13.51964z"/>
  <g fill="#dfe0e1">
    <path d="M717.5214 765.15454l-.00162-474.87671c-.00159-126.9473-103.27846-230.22418-230.22257-230.22418-126.9441 0-230.221 103.27686-230.221 230.22097l.0032 474.87992c0 6.64654 5.388 12.03296 12.03296 12.03296h436.37606c6.64656 0 12.03298-5.3864 12.03298-12.03296zM487.2972 84.11794c109.63523 0 199.54217 86.02723 205.79482 194.12372h-77.44806c-6.64654 0-12.03296 5.3864-12.03296 12.03296s5.38642 12.03295 12.03296 12.03295h77.80994v449.84255l-189.60977-.66375-4.51396-449.18038h72.99674c6.64653 0 12.03295-5.38642 12.03295-12.03298s-5.3864-12.03296-12.03295-12.03296H281.50239c6.25267-108.09488 96.15958-194.12211 205.7948-194.12211zM281.14214 302.30597h194.1237l4.51395 449.15798-198.63765 1.1262V302.30596z"/>
    <path d="M657.7742 237.38678C633.76754 163.31885 565.363 113.5538 487.5547 113.5538c-77.80994 0-146.21287 49.76664-170.21793 123.8346-1.18648 3.66193-.54923 7.6713 1.71488 10.78562 2.26409 3.11272 5.88116 4.95568 9.73204 4.95568h317.542c8.02998 0 13.92876-8.09081 11.44852-15.7429zm-311.4927-8.323c24.75764-55.32277 79.60328-91.44727 141.27319-91.44727 61.6683 0 116.51394 36.1229 141.27479 91.44727h-282.548.00003z"/>
  </g>
  <path fill="#fff" stroke="#000" stroke-width="0" d="M228.90804 572.1839c21.33612-.1867 66.2069 23.90808 68.96554 53.33337 2.75864 29.4253.91956 116.78162 1.83908 116.78162.91953 0 157.24137-1.83911 157.24137-1.83911l-61.6092-169.19538-5.5172-39.54028s21.1494-37.70114 44.13793-51.49423c22.98853-13.7931 70.32953-20.3829 108.50568-.91953 28.14752 14.35048 60.68963 46.89649 58.85058 70.80457-1.83905 23.90808-66.20684 182.98852-66.20684 182.98852l142.52874 5.51728s.47519-80.41577 3.67816-120.45984c2.00226-25.03253 25.74714-57.93091 71.72413-57.01141 45.97699.91949 56.09191 6.43676 56.09191 6.43676l-83.67816 219.77008-484.59768 12.8736s-87.66062-227.38353-11.95404-228.04602z" paint-order="fill"/>
  <path fill="#dfe0e1" d="M890.5459 896.55956c-8.13593-10.92477-17.77081-21.41599-28.7786-31.41524 5.44701-23.33773 4.62296-47.63019-2.44908-70.42368-1.88792-6.08042-8.33885-9.48114-14.43003-7.59475-6.08196 1.88792-9.48268 8.34808-7.59476 14.43003 4.6983 15.14493 6.06043 31.09853 4.08641 46.80615-28.44959-21.28377-63.68987-39.82481-104.55703-54.82984-29.91012-10.98165-62.04024-19.73253-95.6678-26.17885 3.71898-4.9412 7.84382-9.56877 12.3361-13.8289 15.87366-15.06345 36.10584-25.2149 57.56487-29.03842 7.75157 9.68562 19.5296 17.11895 32.87884 20.49354 5.41318 1.36983 10.85404 2.03552 16.16115 2.03552 10.60806-.00154 20.6688-2.67661 28.8739-7.73158 11.91793 7.3257 22.51984 16.9483 30.91404 28.17131 2.26613 3.02868 5.73297 4.6245 9.24285 4.6245 2.40296 0 4.8259-.74717 6.89678-2.29687 5.09956-3.8143 6.14038-11.04161 2.32762-16.13963-9.26437-12.3853-20.75182-23.16708-33.6506-31.68735.39357-.8548.76716-1.71881 1.09616-2.6059 0 0 17.61073-28.68 35.48473-62.12002 15.24363-28.51888-25.2968-68.91553-53.08376-75.9353-27.747-7.009-78.2436 7.24316-80.66446 31.81135-3.70613 37.61187-5.87845 79.93906-5.87845 79.93906-.45507 3.25314-.45353 6.54625-.04305 9.82399-18.21972 4.0326-35.55237 11.8472-50.65271 22.84423-17.04977-42.03406-50.35293-75.93527-92.33625-93.6538l9.35322-81.82693c6.25107-7.89763-20.6498-63.44378-79.96954-59.48425-33.98053 2.26817-75.34619 28.91373-73.27612 53.26651 1.22453 14.40584 10.62292 88.06312 10.62292 88.06312-4.46922 1.88485-8.85542 3.9296-13.08942 6.15882-.05842.03075-.11377.06457-.17065.09532-.04612.0246-.09225.05074-.13837.07687-33.23397 17.56172-59.54043 45.2795-75.30493 78.97778-15.02962-9.05221-31.62431-15.07728-48.93698-17.74314l-10.34458-65.10852c1.6285-16.60673-33.32159-44.71091-71.03295-34.21922-26.77345 7.44866-63.74299 44.65104-47.96196 73.958 11.34384 21.06668 24.63948 53.34427 24.63948 53.34427-40.84564 32.68052-59.33288 86.65248-46.60628 137.82791-10.86942 9.90855-20.39054 20.2983-28.44344 31.11237-2.60435 3.49605-3.01177 8.16513-1.0562 12.0609 1.95712 3.89731 5.94513 6.35715 10.3052 6.35715l24.97045-23.061c6.82298-7.05052 14.4285-13.86427 22.71355-20.4382.53655-.3659 1.04236-.76562 1.50358-1.20993 27.3119-21.3468 62.16323-40.0093 103.23487-55.08965 67.53798-24.79673 146.93854-37.90306 229.61991-37.90306s162.08347 13.10633 229.61992 37.90306c54.4301 19.98466 97.95698 46.25575 127.452 76.73624l24.97198 23.061c4.36007 0 8.34808-2.45984 10.30366-6.35715 1.9571-3.89423 1.54662-8.56178-1.0562-12.05782zM784.18086 711.31362c-.79176 2.12776-2.117 4.07564-3.94189 5.79138-6.7584 6.34946-18.78856 8.51412-30.65268 5.51312-10.26983-2.59513-18.84084-8.62328-22.9257-16.12271-1.90024-3.48837-2.62896-6.93983-2.16467-10.25754 0 0 1.07757-50.56524 5.73117-79.54675 1.39454-8.68485 29.27558-16.22164 49.92185-10.74269 33.27609 8.83052 39.50801 40.68199 39.50801 40.68199l-35.47609 64.6832zm-151.7383 30.68958c-6.1004 6.45554-11.54895 13.50605-16.26877 21.05008-28.8493-4.45385-58.63336-7.25653-88.97087-8.32041l-9.34278-67.43498 20.38592 22.15701c2.2031 2.39527 5.28866 3.72358 8.48645 3.72358.64263 0 1.29142-.0538 1.93712-.16296 3.85273-.65647 7.11048-3.21932 8.65557-6.81068l17.03285-39.58498c26.87068 17.9553 47.48106 44.40934 58.0845 75.38334zm-181.2856-68.97084l-7.09971 7.7116-10.3713-24.15256c4.38466 6.42787 10.34824 12.01017 17.47101 16.44096zm-2.5198-40.17995l-7.7708-86.55173c6.07273-8.76626 18.67232-25.67886 47.93746-27.02447 22.81483-1.04904 52.27376 17.39233 53.60669 30.46946l-7.07013 83.11289c-1.70806 15.84137-20.74876 28.24972-43.34392 28.24972-22.59056 0-41.6374-12.41296-43.3593-28.25587zm105.49947 22.41836l-10.96166 25.4778-8.30196-9.023c7.0582-4.7598 12.84958-10.70184 16.9406-17.48485.77486.33976 1.55432.67492 2.32302 1.03005zm-141.95737 9.68255l17.71239 41.24383c1.542 3.5929 4.79976 6.15882 8.65248 6.81683.64725.1107 1.29757.1645 1.94328.1645 3.19318 0 6.27874-1.32831 8.48183-3.7205l16.57318-18.00142-8.8539 63.9297c-25.24256 1.35599-50.05312 3.91884-74.20721 7.64396-7.2596-11.98711-16.2411-22.63822-26.78305-31.77345 11.7734-27.28885 31.41677-50.32064 56.481-66.30345zm-146.56649 42.67207c1.64656 10.64342-9.44579 22.6213-24.726 26.70003-15.27561 4.07411-30.86023-.78254-34.74678-10.83867l-26.1836-59.46307c7.84292-40.0155 49.29181-53.6758 73.61848-26.66821l12.0379 70.26992zm-3.92652 85.9053c-41.11623 15.09573-76.54253 33.77053-105.08283 55.21726-5.45162-38.1844 9.30127-76.82541 38.99154-101.62982 8.7432 7.51173 20.9194 11.7565 34.21638 11.7565 5.54079 0 11.27375-.73488 17.02363-2.27075 19.56649-5.22254 34.304-18.36731 39.73256-33.76745 17.43566 3.07326 33.93964 10.2606 48.23285 21.1085.02153.01691.04459.03229.06611.04766.00307.00308.00615.00461.00922.00769 8.77856 6.65233 16.42097 14.4577 22.8181 23.28238-33.75208 6.454-65.99597 15.22949-96.00756 26.24803zm218.41073-39.06225l9.73636-70.29916h4.31548l9.71022 70.09007c-1.53587-.00923-3.06558-.04612-4.60452-.04612-6.40788.00153-12.78963.103-19.15754.2552zM883.5111 205.02358h7.12706v7.12811c0 4.3308 3.51021 7.83999 7.83997 7.83999 4.32975 0 7.83998-3.50918 7.83998-7.83999v-7.1281h7.12706c4.32975 0 7.83997-3.50918 7.83997-7.83998 0-4.33079-3.51022-7.83997-7.83997-7.83997h-7.12706v-7.12707c0-4.3308-3.51023-7.83997-7.83998-7.83997s-7.83997 3.50918-7.83997 7.83997v7.12707h-7.12706c-4.32977 0-7.83998 3.50918-7.83998 7.83997 0 4.3308 3.51021 7.83997 7.83998 7.83997zM72.98434 217.77439h8.92297v8.92429c0 5.4221 4.39474 9.81554 9.81553 9.81554 5.42079 0 9.81554-4.39344 9.81554-9.81554v-8.92429h8.92297c5.4208 0 9.81553-4.39344 9.81553-9.81553 0-5.42209-4.39474-9.81553-9.81553-9.81553h-8.92297v-8.92298c0-5.4221-4.39475-9.81553-9.81554-9.81553s-9.81553 4.39344-9.81553 9.81553v8.92298h-8.92297c-5.4208 0-9.81555 4.39344-9.81555 9.81553 0 5.4221 4.39474 9.81553 9.81555 9.81553z"/>
  <path fill="#f0f1f2" d="M57.11517 439.69061h6.90257v6.9036c0 4.1944 3.39966 7.59304 7.59304 7.59304s7.59304-3.39864 7.59304-7.59304v-6.9036h6.90258c4.19338 0 7.59303-3.39864 7.59303-7.59303s-3.39965-7.59304-7.59303-7.59304h-6.90258v-6.90258c0-4.19439-3.39966-7.59304-7.59304-7.59304s-7.59304 3.39865-7.59304 7.59304v6.90258h-6.90257c-4.1934 0-7.59305 3.39865-7.59305 7.59304s3.39965 7.59303 7.59305 7.59303zm56.61601 58.05377h10.04532v10.0468c0 6.1041 4.94752 11.05016 11.05015 11.05016s11.05016-4.94605 11.05016-11.05016v-10.0468h10.04532c6.10263 0 11.05015-4.94606 11.05015-11.05015s-4.94752-11.05014-11.05015-11.05014h-10.04532v-10.04534c0-6.1041-4.94753-11.05015-11.05016-11.05015s-11.05015 4.94606-11.05015 11.05015v10.04534h-10.04532c-6.10264 0-11.05016 4.94605-11.05016 11.05014 0 6.1041 4.94752 11.05015 11.05016 11.05015zm727.86627 82.75083h6.90257v6.9036c0 4.1944 3.39966 7.59304 7.59304 7.59304s7.59304-3.39864 7.59304-7.59304v-6.9036h6.90258c4.19338 0 7.59303-3.39864 7.59303-7.59303s-3.39965-7.59304-7.59303-7.59304h-6.90258v-6.90258c0-4.19439-3.39966-7.59304-7.59304-7.59304s-7.59304 3.39865-7.59304 7.59304v6.90258h-6.90257c-4.1934 0-7.59305 3.39865-7.59305 7.59304s3.39965 7.59303 7.59305 7.59303z"/>
</svg>
