<svg xmlns="http://www.w3.org/2000/svg" viewBox="0 0 953.16095 957.01147">
  <path fill="#edcfa4" fill-opacity="0" d="M0 0h953.16095v957.01147H0z" pointer-events="none"/>
  <path fill="#fff" fill-opacity="0" d="M-4.77833 1.32174h958.80202v954.9904H-4.77833z" pointer-events="none"/>
  <path fill="none" d="M-4.51208 1.32174h962.9747v954.99198H-4.51208V1.32174z" pointer-events="none"/>
  <path fill="#C7C8CA" d="M455.71096 249.31802c-68.32013.10087-177.78508 22.82759-141.59526-13.47134 37.76258-37.87168 210.12742 13.47134 141.59526 13.47134z"/>
  <path fill="#fff" d="M474.93337 8.25565c259.64858 0 470.37787 210.72927 470.37787 470.37785S734.58195 949.01139 474.93337 949.01139 4.55551 738.2821 4.55551 478.63349c0-259.6486 210.72928-470.37784 470.37786-470.37784z" class="st0"/>
  <path fill="none" d="M251.65806 253.31626h450.63446-450.63446z"/>
  <path fill="none" d="M64.73348 96.74486h845.68439v883.4201H64.73348V96.74486z" pointer-events="none"/>
  <path fill="#dfe0e1" d="M453.74038 746.07454h46.46881-46.4688z"/>
  <path fill="#f0f1f2" d="M857.30801 448.99308h8.69837v8.69966c0 5.28562 4.28412 9.56847 9.56846 9.56847 5.28435 0 9.56848-4.28285 9.56848-9.56847v-8.69966h8.69837c5.28434 0 9.56846-4.28285 9.56846-9.56846 0-5.2856-4.28412-9.56846-9.56846-9.56846h-8.69837v-8.69838c0-5.28561-4.28413-9.56846-9.56848-9.56846s-9.56846 4.28285-9.56846 9.56846v8.69838h-8.69837c-5.28435 0-9.56847 4.28285-9.56847 9.56846s4.28412 9.56846 9.56847 9.56846z"/>
  <path fill="#dfe0e1" d="M861.01538 71.8964h7.57602v7.57713c0 4.60363 3.73134 8.33386 8.33384 8.33386 4.6025 0 8.33386-3.73023 8.33386-8.33386V71.8964h7.57602c4.6025 0 8.33384-3.73024 8.33384-8.33385 0-4.6036-3.73134-8.33384-8.33384-8.33384h-7.57602v-7.57604c0-4.6036-3.73135-8.33384-8.33386-8.33384s-8.33384 3.73024-8.33384 8.33384v7.57604h-7.57602c-4.60252 0-8.33386 3.73023-8.33386 8.33384s3.73134 8.33385 8.33386 8.33385z"/>
  <path fill="#f0f1f2" d="M891.12224 392.9505h5.55562v5.55645c0 3.37591 2.73626 6.11135 6.11135 6.11135 3.3751 0 6.11136-2.73544 6.11136-6.11135v-5.55645h5.55563c3.3751 0 6.11135-2.73544 6.11135-6.11135 0-3.3759-2.73626-6.11135-6.11135-6.11135h-5.55563v-5.55563c0-3.3759-2.73626-6.11135-6.11136-6.11135s-6.11135 2.73544-6.11135 6.11135v5.55563h-5.55562c-3.37511 0-6.11136 2.73545-6.11136 6.11135 0 3.3759 2.73625 6.11135 6.11136 6.11135z"/>
  <path fill="#dfe0e1" d="M36.14487 131.36505H46.1902v10.0468c0 6.1041 4.94752 11.05016 11.05015 11.05016s11.05016-4.94605 11.05016-11.05016v-10.0468h10.04532c6.10263 0 11.05015-4.94606 11.05015-11.05015s-4.94752-11.05014-11.05015-11.05014H68.2905V99.21942c0-6.1041-4.94753-11.05015-11.05016-11.05015s-11.05015 4.94606-11.05015 11.05015v10.04534H36.14487c-6.10264 0-11.05016 4.94605-11.05016 11.05014 0 6.1041 4.94752 11.05015 11.05016 11.05015z"/>
  <g fill="#dfe0e1">
    <path d="M845.66446 228.15137v-98.35248h-737.6436v98.35248h24.58812v491.7624h-12.29406c-6.79862 0-12.29406 5.49544-12.29406 12.29406s5.49544 12.29406 12.29406 12.29406H464.5486v24.58812c0 .57782.25818 1.08188.33194 1.6474-21.3302 5.3725-37.21412 24.55124-37.21412 47.52884 0 27.1207 22.05554 49.17624 49.17624 49.17624s49.17624-22.05554 49.17624-49.17624c0-22.9776-15.88393-42.15633-37.21412-47.52884.07376-.56552.33194-1.06958.33194-1.6474v-24.58812H833.3704c6.79862 0 12.29406-5.49544 12.29406-12.29406s-5.49544-12.29406-12.29406-12.29406h-12.29406v-491.7624h24.58812zM501.43078 818.26625c0 13.56035-11.02777 24.58812-24.58812 24.58812s-24.58812-11.02777-24.58812-24.58812 11.02777-24.58812 24.58812-24.58812 24.58812 11.02777 24.58812 24.58812zm-368.8218-663.87924h688.46736v49.17624H132.60898v-49.17624zm663.87924 565.52676H157.1971v-491.7624h639.29112v491.7624z"/>
    <path d="M292.50675 623.0624h122.9406c6.79862 0 12.29406-5.49545 12.29406-12.29407 0-6.79861-5.49544-12.29406-12.29406-12.29406h-122.9406c-6.79861 0-12.29406 5.49545-12.29406 12.29406 0 6.79862 5.49545 12.29406 12.29406 12.29406zm122.86561 23.08701h-184.4109c-6.79862 0-12.29406 5.49544-12.29406 12.29406s5.49544 12.29406 12.29406 12.29406h184.4109c6.79862 0 12.29406-5.49544 12.29406-12.29406s-5.49544-12.29406-12.29406-12.29406zm-67.61733-98.35248c35.3946 0 67.71568-13.16694 92.54968-34.7553.34424-.27048.76224-.39342 1.08188-.71306.1967-.1967.25818-.45488.44259-.66388 26.12487-23.37101 43.54556-56.19615 46.70513-93.11521l.23359-.1967.24588-5.4094c.04918-1.08187-.04918-2.13916-.02459-3.22104 0-1.10646.14753-2.18834.14753-3.3071 0-1.49988-.18441-2.96287-.2213-4.45045-.07376-2.17605-.15982-4.3521-.33193-6.51585-.2213-2.93828-.57782-5.82739-.98353-8.7042-.24588-1.74575-.49176-3.4915-.79911-5.22497-.57782-3.23334-1.30317-6.4052-2.09-9.56478-.35652-1.41382-.68846-2.83993-1.09416-4.24145-.93435-3.25793-2.01623-6.45438-3.17187-9.61396-.49176-1.35234-.95894-2.71698-1.48758-4.05704-1.18023-2.96286-2.52028-5.83967-3.89722-8.6919-.73764-1.52446-1.42611-3.07351-2.21293-4.57339-1.26629-2.39734-2.65552-4.69633-4.05704-7.00761-1.11876-1.8687-2.18834-3.76198-3.39316-5.5815-1.08188-1.61053-2.2744-3.13499-3.41775-4.70863-1.69658-2.33587-3.34398-4.69633-5.1881-6.93385 0-.0123-.01229-.0123-.02458-.02459-2.86452-3.47922-5.85197-6.86008-9.06072-10.06883-3.04893-3.04893-6.28227-5.87656-9.57707-8.61814-.18442-.15982-.35653-.33194-.55324-.49176-2.08999-1.72117-4.30292-3.25793-6.47897-4.84386-1.74575-1.27858-3.45463-2.60634-5.26185-3.81116-1.59823-1.05729-3.24564-1.97934-4.88075-2.97516-2.58175-1.57364-5.1635-3.1227-7.8436-4.52422-1.18024-.6147-2.38505-1.15564-3.57758-1.73346-3.22104-1.57364-6.47897-3.06122-9.83525-4.38898-.93435-.36882-1.88099-.68846-2.81534-1.0327-3.58986-1.34005-7.2166-2.55716-10.92942-3.60216-.97123-.27047-1.94246-.50405-2.92598-.74994-3.57757-.92205-7.19203-1.73346-10.86795-2.37275-1.35235-.23359-2.71699-.418-4.08163-.627-3.20875-.46717-6.4298-.84829-9.7123-1.09417-1.95476-.14753-3.90952-.22129-5.86427-.29505-1.57364-.07377-3.13499-.25818-4.74551-.25818-1.14335 0-2.24981.14753-3.38087.17212-1.05729.02458-2.10228-.07377-3.14728-.0246l-4.85615.29507-.12294.13523c-72.58413 5.90115-129.87445 66.73216-129.87445 140.80387 0 77.95663 63.42506 141.38169 141.38169 141.38169zm84.96425-61.50718l-61.43342-61.43342h91.66451c-3.76198 23.56771-14.55616 44.78726-30.2311 61.43342zm-75.15359-196.17632c1.27858.09835 2.55716.2213 3.82345.36882 2.79075.33194 5.54462.74994 8.2739 1.2663.8237.15982 1.6474.29505 2.47111.46717 3.34399.71305 6.65109 1.54905 9.88443 2.54487.1967.06147.4057.11064.6024.17211 36.41501 11.4089 65.2077 40.20158 76.61659 76.61659.06147.1967.11064.4057.17211.6024.99582 3.23334 1.83182 6.52815 2.54487 9.88443.17212.8237.30735 1.6474.46718 2.4711.51635 2.72929.93435 5.48316 1.26629 8.2739.14752 1.2663.25817 2.54488.36882 3.82346.09835 1.20482.12294 2.44652.1844 3.66363H353.90207V289.92902c1.21711.07377 2.44652.08606 3.66363.18441zm-28.25175 1.10647v120.88749l.0123.38112c0 .06147.01229.11064.01229.17211l.43029 12.19571h6.74944l77.57552 77.57552c-18.85909 13.06858-41.70145 20.77696-66.33875 20.77696-64.39629 0-116.79357-52.39728-116.79357-116.79357 0-58.11402 42.70956-106.30674 98.35248-115.19534zm258.17526 72.16613h98.35248c6.79862 0 12.29406-5.49544 12.29406-12.29406s-5.49544-12.29406-12.29406-12.29406H587.4892c-6.79862 0-12.29406 5.49544-12.29406 12.29406s5.49544 12.29406 12.29406 12.29406zm151.094-21.02284c-2.22523 2.32357-3.56528 5.53232-3.56528 8.72878s1.34005 6.39291 3.56528 8.72878c2.32357 2.21293 5.53232 3.56528 8.72878 3.56528s6.39291-1.35235 8.72878-3.56528c2.21293-2.33587 3.56528-5.53232 3.56528-8.72878s-1.35235-6.4052-3.56528-8.72878c-4.5488-4.5488-12.90876-4.5488-17.45756 0zm-28.1534-40.44746h36.88218c6.79862 0 12.29406-5.49544 12.29406-12.29406s-5.49544-12.29406-12.29406-12.29406H710.4298c-6.79862 0-12.29406 5.49544-12.29406 12.29406s5.49544 12.29406 12.29406 12.29406zm-122.9406 0h24.58812c6.79862 0 12.29406-5.49544 12.29406-12.29406s-5.49544-12.29406-12.29406-12.29406H587.4892c-6.79862 0-12.29406 5.49544-12.29406 12.29406s5.49544 12.29406 12.29406 12.29406zm73.76436 0c3.19646 0 6.39291-1.35235 8.72878-3.56528 2.21293-2.33587 3.56528-5.53232 3.56528-8.72878 0-3.33169-1.35235-6.4052-3.56528-8.72878-4.5488-4.5488-12.90876-4.5488-17.45756 0-2.22523 2.32357-3.56528 5.53232-3.56528 8.72878s1.34005 6.39291 3.56528 8.72878c2.32357 2.21293 5.53232 3.56528 8.72878 3.56528zM550.60702 683.03159c6.79862 0 12.29406-5.49544 12.29406-12.29406v-36.88218c0-6.79862-5.49544-12.29406-12.29406-12.29406s-12.29406 5.49544-12.29406 12.29406v36.88218c0 6.79862 5.49544 12.29406 12.29406 12.29406zm49.17624-110.64654c-6.79862 0-12.29406 5.49544-12.29406 12.29406v86.05842c0 6.79862 5.49544 12.29406 12.29406 12.29406s12.29406-5.49544 12.29406-12.29406v-86.05842c0-6.79862-5.49544-12.29406-12.29406-12.29406zm49.17624 24.58812c-6.79862 0-12.29406 5.49544-12.29406 12.29406v61.4703c0 6.79862 5.49544 12.29406 12.29406 12.29406s12.29406-5.49544 12.29406-12.29406v-61.4703c0-6.79862-5.49544-12.29406-12.29406-12.29406zm49.17624-86.05842c-6.79862 0-12.29406 5.49544-12.29406 12.29406v147.52872c0 6.79862 5.49544 12.29406 12.29406 12.29406s12.29406-5.49544 12.29406-12.29406V523.20881c0-6.79862-5.49544-12.29406-12.29406-12.29406zm49.17624 49.17624c-6.79862 0-12.29406 5.49544-12.29406 12.29406v98.35248c0 6.79862 5.49544 12.29406 12.29406 12.29406s12.29406-5.49544 12.29406-12.29406v-98.35248c0-6.79862-5.49544-12.29406-12.29406-12.29406z"/>
  </g>
  <path fill="#dfe0e1" d="M12.9781 32.04869h4.65764v4.65832c0 2.83025 2.29398 5.12355 5.12354 5.12355 2.82956 0 5.12354-2.2933 5.12354-5.12355V32.0487h4.65764c2.82956 0 5.12354-2.2933 5.12354-5.12354 0-2.83024-2.29398-5.12354-5.12354-5.12354h-4.65764v-4.65764c0-2.83024-2.29398-5.12354-5.12354-5.12354s-5.12354 2.2933-5.12354 5.12354v4.65764H12.9781c-2.82957 0-5.12354 2.2933-5.12354 5.12354 0 2.83024 2.29397 5.12354 5.12354 5.12354z"/>
</svg>
