<svg xmlns="http://www.w3.org/2000/svg" viewBox="0 0 467.78607 463.90829">
  <path fill="none" d="M0 0h467.78607v463.90829H0z" pointer-events="none"/>
  <path fill="#C7C8CA" d="M161.41843 338.03363h-35.134v-111.393h35.134v111.393zm.073-117.393h-35.133v-34.899l35.133-.054v34.953zm59.164 117.393h-53.237v-113.749c.046-.208.073-.422.073-.644v-38.133h53.164v152.526zm-53.037-158.526c1.609-29.48 26.076-52.994 56.039-53.038 29.895 0 54.426 23.528 56.033 53.038h-112.072zm112.16 43.489c-.046.208-.074.422-.074.644v114.393h-53.049v-152.526h53.123v37.489zm-56.215-102.527c-33.188.049-60.34 26.252-61.955 59.038h-35.16c.766-24.768 10.752-47.949 28.332-65.582 18.344-18.397 42.754-28.551 68.732-28.59h.148c52.541 0 95.531 41.946 97.199 94.112l-35.158.055c-1.616-32.817-28.847-59.033-62.138-59.033zm97.274 217.564h-35.133v-111.393h35.133v111.393zm.074-117.393h-35.133v-35.133h35.133v35.133z"/>
  <path fill="#fff" d="M232.90114 3.3683c126.12999 0 228.49636 102.36636 228.49636 228.49635S359.03113 460.36102 232.90114 460.36102 4.40478 357.99465 4.40478 231.86465 106.77115 3.3683 232.90114 3.3683z" class="st0"/>
  <path fill="none" d="M124.44026 122.41186h218.90557v218.90556H124.44026z"/>
  <path fill="#f0f1f2" class="SVGplus" d="M366.9969 126.74311h5.97026v5.97114c0 3.62787 2.94047 6.56747 6.56746 6.56747s6.56747-2.9396 6.56747-6.56747v-5.97114h5.97026c3.62699 0 6.56746-2.9396 6.56746-6.56746s-2.94047-6.56746-6.56746-6.56746h-5.97026v-5.97027c0-3.62786-2.94048-6.56746-6.56747-6.56746s-6.56746 2.9396-6.56746 6.56746v5.97027h-5.97026c-3.627 0-6.56747 2.9396-6.56747 6.56746s2.94047 6.56746 6.56747 6.56746z"/>
  <path fill="#dfe0e1" class="SVGplus" d="M421.42194 44.81894h-3.87983V40.9391c0-2.3576-1.91033-4.26793-4.26794-4.26793s-4.26793 1.91032-4.26793 4.26793v3.87984h-3.87984c-2.3576 0-4.26793 1.91032-4.26793 4.26793s1.91033 4.26793 4.26793 4.26793h3.87984v3.8804c0 2.35761 1.91033 4.26794 4.26793 4.26794s4.26794-1.91033 4.26794-4.26793v-3.8804h3.87983c2.3576 0 4.26794-1.91033 4.26794-4.26794s-1.91033-4.26793-4.26794-4.26793z"/>
  <path fill="none" d="M33.63755 46.35387h410.80973v429.14068H33.63755z" pointer-events="none"/>
  <path fill="#f0f1f2" class="SVGplus" d="M64.5288 112.10488h3.70283v3.70228c0 2.24971 1.82344 4.07261 4.07261 4.07261s4.07262-1.8229 4.07262-4.07261v-3.70228h3.70228c2.24917 0 4.07262-1.8229 4.07262-4.07262s-1.82345-4.07261-4.07262-4.07261h-3.70228v-3.70228c0-2.24972-1.82345-4.07262-4.07262-4.07262s-4.07261 1.8229-4.07261 4.07262v3.70228H64.5288c-2.24917 0-4.07262 1.8229-4.07262 4.07261s1.82345 4.07262 4.07262 4.07262z"/>
  <path fill="#dfe0e1" d="M315.58778 119.8589c-11.66176-35.98011-44.89075-60.15457-82.68783-60.15457-37.79787 0-71.02608 24.17523-82.68706 60.15535-.57636 1.77886-.2668 3.7265.83304 5.23935 1.09983 1.51207 2.8569 2.40733 4.72755 2.40733h154.25293c3.90074 0 6.7662-3.93029 5.56137-7.64746zm-151.31435-4.04308c12.02656-26.87424 38.66902-44.4225 68.62652-44.4225 29.95672 0 56.59918 17.54748 68.6273 44.4225H164.27342zm106.0347 124.69445c-10.09836 0-18.3144 8.21605-18.3144 18.3144s8.21604 18.31441 18.3144 18.31441 18.3144-8.21605 18.3144-18.3144-8.21605-18.3144-18.3144-18.3144zm0 24.93827c-3.65262 0-6.62464-2.97125-6.62464-6.62464s2.97124-6.62464 6.62464-6.62464 6.62464 2.97125 6.62464 6.62464-2.97203 6.62464-6.62464 6.62464zm-74.81636-24.93827c-10.09836 0-18.3144 8.21605-18.3144 18.3144s8.21604 18.31441 18.3144 18.31441 18.3144-8.21605 18.3144-18.3144-8.21605-18.3144-18.3144-18.3144zm0 24.93827c-3.65262 0-6.62464-2.97125-6.62464-6.62464s2.97125-6.62464 6.62464-6.62464 6.62464 2.97125 6.62464 6.62464-2.97203 6.62464-6.62464 6.62464z"/>
  <path fill="#dfe0e1" d="M426.17502 221.80618h-.81904c4.16675-5.2518 6.66431-11.885 6.66431-19.09377 0-16.97423-13.81008-30.78354-30.78354-30.78354-16.97423 0-30.78353 13.81008-30.78353 30.78354 0 7.20878 2.49756 13.84197 6.6643 19.09377h-.81903c-3.2287 0-5.84527 2.61657-5.84527 5.84527 0 3.2287 2.61656 5.84527 5.84527 5.84527h6.62464v6.70943c-.68137.2839-1.31918.69925-1.87453 1.2515-5.18491 5.1639-10.7105 10.09447-16.42043 14.65712-.57559.4597-1.03605 1.0096-1.38762 1.6093l-4.41099-6.03583c-1.88775-2.58157-5.63681-3.15404-8.20749-1.24217-1.86442 1.38606-3.83384 2.79624-5.8865 4.2173V146.6017c-.00077-61.66741-50.16976-111.8364-111.83562-111.8364S121.06509 84.93428 121.06509 146.60014v107.82289c-1.47473-1.02205-2.94947-2.0682-4.41331-3.1346-2.538-1.8473-6.08173-1.36272-8.02782 1.10217l-4.32309 5.4727c-7.11855-5.49137-13.91664-11.3802-20.25194-17.57004-.35935-.3508-.75526-.63936-1.1706-.87893v-5.9176h6.62463c3.22793 0 5.84527-2.61657 5.84527-5.84528 0-3.2287-2.61734-5.84527-5.84527-5.84527h-.81904c4.1652-5.2518 6.66354-11.885 6.66354-19.09377 0-16.97423-13.81009-30.78354-30.78354-30.78354-16.97423-.00078-30.78432 13.8093-30.78432 30.78354 0 7.20878 2.49756 13.84197 6.66431 19.09377h-.81904c-3.22793 0-5.84527 2.61657-5.84527 5.84527 0 3.2287 2.61734 5.84527 5.84527 5.84527h6.62464v193.66476c0 3.22871 2.61735 5.84528 5.84527 5.84528h24.93905c3.22793 0 5.84527-2.61657 5.84527-5.84528V255.21095c4.5541 4.10297 9.29254 8.05349 14.17721 11.82589l-3.89918 4.93522c-2.02154 2.55901-1.50118 6.40452 1.1255 8.33272 3.5585 2.6158 7.20878 5.15769 10.84895 7.55569 5.25102 3.45971 10.56504 6.6853 15.93507 9.69078v79.73214c0 3.2287 2.61734 5.84527 5.84527 5.84527h211.97916c3.22871 0 5.84528-2.61656 5.84528-5.84527v-79.38212c6.51574-3.63395 12.93348-7.59691 19.24467-11.90211 2.72701-1.85975 5.46725-3.81596 8.3755-5.98061 2.57378-1.91498 3.12292-5.54737 1.22972-8.13671l-4.02985-5.51548c.83848-.18745 1.65052-.54603 2.36688-1.1185 3.76073-3.00391 7.43124-6.1735 10.99985-9.44577v171.35862c0 3.2287 2.61656 5.84527 5.84527 5.84527h24.93904c3.2287 0 5.84527-2.61657 5.84527-5.84527V233.49595h6.62465c3.2287 0 5.84527-2.61657 5.84527-5.84527-.00312-3.22871-2.6189-5.8445-5.8476-5.8445zM71.18778 421.31621h-13.2485V233.49595h13.2485V421.3162zm-6.62464-199.51003c-10.52771 0-19.09378-8.56528-19.09378-19.09377s8.56607-19.09378 19.09378-19.09378c10.52771 0 19.09377 8.56529 19.09377 19.09378s-8.56528 19.09377-19.09377 19.09377zm168.3368-175.35113c53.2577 0 96.93195 41.7896 99.96931 94.29982h-37.62208c-3.2287 0-5.84527 2.61656-5.84527 5.84527s2.61657 5.84527 5.84527 5.84527h37.79787v109.76042c-23.28464 13.95943-55.24968 27.02981-94.29982 28.18331v-137.9445h35.45975c3.2287 0 5.84527-2.61657 5.84527-5.84528s-2.61656-5.84527-5.84527-5.84527H132.93064c3.03737-52.50944 46.71161-94.29904 99.9693-94.29904zm-100.1443 105.98958h94.29981v137.93362c-33.06409-1.02438-64.71644-10.55027-94.29981-28.3972V152.44463zm94.29904 218.9935h-94.29904V303.6882c29.89372 14.6789 61.47996 22.50371 94.29981 23.33442v44.4155zm105.98958 0h-94.29904v-44.40929c.30568-.00778.61214-.01089.91704-.01945 32.7164-.9427 63.99697-8.6664 93.382-23.00073v67.42946zm24.34868-95.0963c-36.13723 24.65047-75.86096 37.76597-118.06747 38.98247-2.13977.06144-4.29898.09256-6.41386.09256-42.93843 0-83.76588-12.5547-121.35062-37.31718-1.81387-1.19472-3.62928-2.42678-5.43537-3.68684l8.2285-10.4157c1.50118 1.04071 3.00391 2.05654 4.49654 3.0397 37.13439 24.46535 77.5387 36.24923 120.09368 35.04518 49.87887-1.43818 88.79056-21.14876 113.8774-38.7997l7.86913 10.76729c-1.11071.78559-2.20588 1.54707-3.29793 2.29221zm50.46768 144.97438h-13.2485V233.49595h13.2485V421.3162zm-6.62387-199.51003c-10.52848 0-19.09377-8.56528-19.09377-19.09377s8.5645-19.09378 19.09377-19.09378c10.5285 0 19.09378 8.56529 19.09378 19.09378s-8.56529 19.09377-19.09378 19.09377z"/>
</svg>
