<svg xmlns="http://www.w3.org/2000/svg" viewBox="0 0 930.93207 923.96796">
  <path fill="#fff" d="M462.63505 5.63315c252.57916 0 457.57095 204.99177 457.57095 457.57093 0 252.57917-204.99179 457.57098-457.57095 457.57098-252.57916 0-457.57095-204.9918-457.57095-457.57098S210.05589 5.63315 462.63505 5.63315z" class="st0"/>
  <path fill="#f0f1f2" d="M551.14054 110.0988h12.29026v12.29208c0 7.46826 6.0532 13.51966 13.51965 13.51966s13.51967-6.0514 13.51967-13.51966V110.0988h12.29026c7.46645 0 13.51964-6.0514 13.51964-13.51964 0-7.46824-6.0532-13.51965-13.51964-13.51965h-12.29026V70.76923c0-7.46824-6.05322-13.51964-13.51967-13.51964s-13.51965 6.0514-13.51965 13.51964v12.29028h-12.29026c-7.46647 0-13.51966 6.0514-13.51966 13.51965 0 7.46824 6.0532 13.51964 13.51966 13.51964z"/>
  <path fill="#fff" d="M215.1725 585.57049c21.33612-.1867 66.2069 23.90808 68.96554 53.33337 2.75864 29.4253.91955 116.7816 1.83908 116.7816.91953 0 157.24135-1.8391 157.24135-1.8391L381.6093 584.65099l-5.51722-39.54028s21.14942-37.70114 44.13794-51.49423c22.98853-13.79309 70.32953-20.3829 108.50567-.91952 28.14752 14.35048 60.68963 46.89648 58.85058 70.80456-1.83905 23.90808-66.20684 182.98852-66.20684 182.98852l142.52874 5.51727s.47518-80.41577 3.67816-120.45983c2.00226-25.03253 25.74713-57.9309 71.72412-57.01141 45.97698.9195 56.09191 6.43676 56.09191 6.43676L711.7242 800.7429l-484.59766 12.8736s-87.66061-227.38352-11.95404-228.04601z" paint-order="fill"/>
  <path fill="#dfe0e1" d="M757.91732 54.59167h7.12704v7.1281c0 4.3308 3.51021 7.83997 7.83996 7.83997s7.83997-3.50917 7.83997-7.83997v-7.1281h7.12705c4.32975 0 7.83996-3.50917 7.83996-7.83995 0-4.3308-3.51021-7.83996-7.83996-7.83996h-7.12705V31.7847c0-4.33079-3.51022-7.83996-7.83997-7.83996-4.32975 0-7.83996 3.50917-7.83996 7.83996v7.12706h-7.12704c-4.32976 0-7.83997 3.50917-7.83997 7.83996 0 4.33078 3.5102 7.83995 7.83997 7.83995z"/>
  <path fill="#f0f1f2" d="M317.12122 853.14552h8.923v8.9243c0 5.42212 4.39474 9.81557 9.81555 9.81557 5.4208 0 9.81556-4.39345 9.81556-9.81557v-8.9243h8.923c5.4208 0 9.81555-4.39345 9.81555-9.81556 0-5.4221-4.39475-9.81555-9.81555-9.81555h-8.923v-8.923c0-5.4221-4.39476-9.81556-9.81556-9.81556s-9.81555 4.39345-9.81555 9.81555v8.92301h-8.923c-5.42082 0-9.81556 4.39345-9.81556 9.81555s4.39474 9.81556 9.81556 9.81556zm-40.64935-75.59422h6.40229v6.40322c0 3.8904 3.15325 7.04271 7.0427 7.04271s7.0427-3.15232 7.0427-7.04271v-6.40323h6.4023c3.88944 0 7.0427-3.15232 7.0427-7.0427s-3.15326-7.0427-7.0427-7.0427h-6.4023v-6.4023c0-3.89038-3.15325-7.0427-7.0427-7.0427s-7.0427 3.15232-7.0427 7.0427v6.4023h-6.40229c-3.88946 0-7.04271 3.15232-7.04271 7.0427s3.15325 7.0427 7.04271 7.0427z"/>
  <path fill="#dfe0e1" d="M124.42382 887.62192h10.04534v10.04682c0 6.10412 4.94752 11.05018 11.05016 11.05018s11.05018-4.94606 11.05018-11.05018v-10.04682h10.04533c6.10264 0 11.05017-4.94606 11.05017-11.05016s-4.94753-11.05016-11.05017-11.05016H156.5695v-10.04535c0-6.1041-4.94754-11.05016-11.05018-11.05016-6.10264 0-11.05016 4.94606-11.05016 11.05016v10.04535h-10.04534c-6.10265 0-11.05018 4.94606-11.05018 11.05016s4.94753 11.05016 11.05018 11.05016z"/>
  <path fill="#00acc7" d="M819.27595 178.81003H111.17c-36.15274 0-65.56536 29.41263-65.56536 65.56537v419.61835c0 36.15274 29.41262 65.56536 65.56536 65.56536h708.10595c36.15275 0 65.56537-29.41262 65.56537-65.56536V244.3754c0-36.15274-29.41262-65.56537-65.56537-65.56537zm39.33922 485.18372c0 21.68902-17.6502 39.33922-39.33922 39.33922H111.17c-21.68902 0-39.33922-17.6502-39.33922-39.33922V244.3754c0-21.68902 17.6502-39.33922 39.33922-39.33922h708.10596c21.68903 0 39.33922 17.6502 39.33922 39.33922v419.61835z"/>
  <path fill="#00acc7" d="M371.66181 260.03482H135.6265c-7.23842 0-13.11307 5.86154-13.11307 13.11307v249.1484c0 7.25153 5.87465 13.11307 13.11307 13.11307h236.03532c7.23842 0 13.11307-5.86154 13.11307-13.11307v-249.1484c0-7.25153-5.87465-13.11307-13.11307-13.11307zm-208.89126 249.1484c4.43222-40.40139 28.82254-74.39047 63.15256-86.78233 3.711 2.33413 7.76294 4.09128 12.0247 5.44193.65565.2098 1.29819.43273 1.96695.61631 2.04564.55075 4.1044.98348 6.22871 1.2982.36717.05245.72122.06556 1.08839.1049 2.12432.26226 4.2224.64254 6.41229.64254s4.28798-.38028 6.4123-.64254c.36716-.03934.72121-.05245 1.08838-.1049 2.12432-.31472 4.19618-.73433 6.2287-1.2982.66877-.18358 1.31132-.4065 1.96697-.61631 4.26175-1.35065 8.30057-3.1078 12.01157-5.44193 34.34314 12.39186 58.72035 46.38094 63.15257 86.78232H162.77055zM227.418 378.05247V364.9394c0-14.46372 11.76243-26.22615 26.22615-26.22615s26.22615 11.76243 26.22615 26.22615v13.11307c0 7.8285-3.5143 14.77843-8.96935 19.59093-.11801.0918-.27537.15736-.39339.26226-3.4225 2.898-9.1267 6.37296-16.86341 6.37296-7.73671 0-13.4409-3.47497-16.86341-6.37296-.11802-.1049-.26226-.15735-.3934-.24915-5.45503-4.8256-8.96934-11.77554-8.96934-19.60404zm131.13074 84.31706c-12.39186-26.75067-32.86136-48.3479-58.44497-60.4775 3.69789-7.18596 5.99267-15.21116 5.99267-23.83956V364.9394c0-28.92744-23.52485-52.4523-52.45229-52.4523s-52.4523 23.52486-52.4523 52.4523v13.11307c0 8.6284 2.2948 16.6536 5.99268 23.83957-25.5836 12.12959-46.05311 33.73993-58.44497 60.4775V286.26096h209.80918v176.10857zm61.62813-82.26612h222.6886v26.22615h-222.6886V380.1034zm0 65.56537h65.56537v26.22614h-65.56537v-26.22614zm104.90459 0h52.4523v26.22614h-52.4523v-26.22614zm-104.90459 65.56536h65.56537v26.22615h-65.56537v-26.22615zm384.52212-265.67968h-91.79152c-7.23841 0-13.11307 5.86154-13.11307 13.11307v65.56537c0 7.25153 5.87466 13.11307 13.11307 13.11307H804.699c7.23841 0 13.11307-5.86154 13.11307-13.11307v-65.56537c0-7.25153-5.87466-13.11307-13.11307-13.11307zm-13.11308 65.56536h-65.56536V271.7806h65.56536v39.33922z"/>
  <path fill="#00abc7" d="M775.04661 507.39175c84.87303 0 153.75549 68.88246 153.75549 153.75549s-68.88246 153.75549-153.7555 153.75549-153.75549-68.88246-153.75549-153.75549 68.88246-153.75549 153.7555-153.75549z" class="st0"/>
  <path fill="#fff" d="M775.04669 529.80457c71.59536 0 129.70173 58.84152 129.70173 131.34268S846.64205 792.48994 775.0467 792.48994s-129.70173-58.84152-129.70173-131.34269 58.10637-131.34268 129.70173-131.34268z" class="st0"/>
  <path fill="#00acc7" d="M824.87377 643.3518h-28.47263v-42.70894H753.6922v42.70894h-28.47263l49.8271 49.8271 49.8271-49.8271zm-99.6542 64.06342v14.2363h99.6542v-14.2363h-99.6542z"/>
</svg>
